<svg width="1916" height="105" fill="none" xmlns="http://www.w3.org/2000/svg"><g clip-path="url(#clip0)"><path fill="#fff" d="M0 0h1916v105H0z"/><path fill="#4188C7" d="M0 0h1916v105H0z"/><path fill="#3577BB" d="M0 0h562v105H0z"/><path d="M868 100.2C729.9 88.7 649.2 29 615-12.3l-242 6c-4.1 11-9.6 26.3-15 43.2 26.7 39.7 61.1 86.8 84.8 107 83.9 2.7 209.7 2 350.4-.5 159.3-10.4 339-25.8 459.8-37.2 21-24.8 66.4-84.2 80-123 1.8-5.1 2.3-9.5 1.7-13.3L1156-25.7l31 .4c-38.5 47.5-156.2 139.1-319 125.5z" fill="#1655B5"/><path d="M868 100.2c162.8 13.6 280.5-78 319-125.5l-31-.4-541 13.4c34.2 41.3 114.9 101 253 112.5z" fill="#1655B5"/><path d="M868 100.2C729.9 88.7 649.2 29 615-12.3l-242 6c-4.1 11-9.6 26.3-15 43.2 26.7 39.7 61.1 86.8 84.8 107 83.9 2.7 209.7 2 350.4-.5 159.3-10.4 339-25.8 459.8-37.2 21-24.8 66.4-84.2 80-123 1.8-5.1 2.3-9.5 1.7-13.3L1156-25.7l31 .4c-38.5 47.5-156.2 139.1-319 125.5z" fill="#1D72C1"/><path d="M18.5 108.2L-5 79.7v30l23.5-1.5z" fill="#225CA8"/><path d="M1253-47.8l-892.5 9.5-30.5 32c7.1 11.5 16.9 26.7 28 43.2 5.4-16.9 10.9-32.3 15-43.2l242-6a131.6 131.6 0 0 1-14-20l555 6.6 178.7-4.4c-3.7-24.9-53.6-22.8-81.7-17.7z" fill="#4589C7"/><path d="M1333-16.8c-13.6 38.8-59 98.2-80 123a17561.2 17561.2 0 0 1-459.8 37.2c241.8-4.3 527.5-14 719.3-21.7-2.2-25-12.6-87.7-37-138.5S1431-48.3 1424-32.3l-89.3 2.2c.6 3.8 0 8.2-1.7 13.3zM442.8 144c-23.7-20.3-58.1-67.4-84.8-107.1-11 33.7-22 73.3-22 93.8 0 7 40.1 11.1 106.8 13.2z" fill="#1B6ABE"/></g><defs><clipPath id="clip0"><path fill="#fff" d="M0 0h1916v105H0z"/></clipPath></defs></svg>