<svg xmlns="http://www.w3.org/2000/svg" height="831.8" width="1189.8"><g fill="#fff"><path d="M917.7 291.3c-40.8 0-62 33.3-62 67.5 0 34.7 20.8 67.1 62 67.1 41.1 0 62-32.4 62-67 0-34.3-24.1-67.6-62-67.6M828.8 566.9c-13.6 0-24.5 9.2-24.5 25 0 15.7 11 25 24.5 25 32 0 32-50 0-50"/><path d="M917.7 477.7c-74 0-118.5-53.2-118.5-118.9 0-65.2 45.4-118.9 118-118.9s119.4 53.7 119.4 119c0 65.6-45 118.8-119 118.8zm92.5 155.3c-18 .7-29.7-9.6-29.7-30.3V567H965v-17.7h15.5V528l20.5-2.2v23.5h22.8V567h-23v35.7c0 8 4.4 11.8 10.8 11.8 3.1 0 6.8-1 9.9-2.5l5.7 17.5a45.8 45.8 0 0 1-17 3.5zM950 572.7c-4.2-3.6-8-5.4-14.8-5.4-10.7 0-20.6 5.7-20.6 21V632H894v-82.8h19l1.5 9.5c6.3-10.2 15-11.7 23.3-11.7 8.6 0 16.8 3.3 21.3 7.9zM873.4 633h-19.2l-1-12c-4.7 9.7-17.6 14.4-26.8 14.6-24.4.1-42.5-15-42.5-43.9 0-28.4 19-43.3 43-43.1 11 0 21.6 5.1 26.3 13.3l.7-11.3h19.5zM773 632h-20.2v-44c0-10.6-4.4-19.7-15.3-19.7s-17.7 9.4-17.7 20.1V632h-20v-43.6c0-10.7-5.7-20.5-16.8-20.5-10.9 0-17.3 9.8-17.3 20.5V632h-20.1v-41.7c.8-37.8 29.6-41 37.4-41 9.7 0 23.6 3.8 28.3 15a29.5 29.5 0 0 1 27.2-14.8c23 0 34.5 14.2 34.5 38.6zm-178.4 4.6a49.1 49.1 0 0 1-38.8-15l10.2-14.8c6 6.7 19.6 11.6 29 11.8 7.8.1 15.1-4 15.1-10 0-5.9-4.7-8.3-16.7-9-15.8-1.1-34.7-7-34.7-26 0-19.4 20-26.2 35.4-26.2 13.1 0 23 2.5 32.7 11l-11.5 13.7c-6-5.7-12.8-7.5-20.8-7.5-10 0-15.4 3-15.4 8.3 0 5.5 5 8.5 15.7 9.2 15.9 1 36 4.6 36 27 0 14.8-12.1 27.5-36.2 27.5zM475 463.6c-10.2 104.3-49.6 111.2-97.2 133 2.3-.9 45.9-53.6 45.9-131 1.5-63.3-28.5-106.3-80.2-148.3l30.3-42.7c21.9 17 60.4 51.4 82.1 93.8 25.2-45.2 78-98.2 133.8-118.2l17.4 50c-36.1 15.7-116.5 57.9-132 163.5zm-197.8 15c-8 0-13.8-.8-16.6-1.2-59.3-9.4-84.3-44.5-95-72.4-10.6-28-9-54.8-7.7-65a119 119 0 0 1 43-75.5c26.9-21.2 60.8-30.8 104.4-24.4 16 2.4 32.7 10.3 49.7 20.7l-30.2 42.5a107 107 0 0 0-31.8-10.7c-29.7-3.7-43.7 1.7-59 13.8a65.5 65.5 0 0 0-23.2 39.7c-2.4 20.5-1.5 69.2 58.1 78.6 3.5.6 34.2 4.6 56.6-20l39.5 35.8a116.8 116.8 0 0 1-87.8 38zM673 244.7v-59.4l57-6.1v65.5h63.8V294h-64.2v99.8c0 22 12.6 31.4 26.1 31.4 5.6-.5 12.4-2.3 21.5-9.2a256.4 256.4 0 0 0 27.2 44.3 84.8 84.8 0 0 1-48.5 17.8c-50.2 1.4-83-26.7-83-84.3v-99.8h-43l-17.7-49.2zM1181 349a397.5 397.5 0 0 0-108-198.3A397.6 397.6 0 0 0 791.7 33.9a397 397 0 0 0-288 123.2A291.7 291.7 0 0 0 280 76.7 287 287 0 0 0 72.1 177.5a284.2 284.2 0 0 0-67.8 174 284 284 0 0 0 41 158.9A292.6 292.6 0 0 0 443 624.8a398 398 0 0 0 630.2 89 397 397 0 0 0 108-364.9M1091 93.5h-7.6v-5.2h21.3v5.2h-7.7v21.7h-6V93.5M1107.7 88.3h9l6.1 17.5h.1l6.2-17.5h9v26.9h-6V94.5l-7.1 20.7h-4.5l-6.8-20.7h-.1v20.7h-6v-27"/></g></svg>